<svg width="204" height="200" viewBox="0 0 204 200" fill="none" xmlns="http://www.w3.org/2000/svg">
<g filter="url(#filter0_f_135_751)">
<rect x="77.3911" y="77" width="48.6463" height="45.8086" rx="22.9043" fill="#FFEF9A"/>
</g>
<g filter="url(#filter1_i_135_751)">
<path d="M122.794 103.553C122.794 115.195 113.357 124.633 101.714 124.633C90.0721 124.633 80.6343 115.195 80.6343 103.553C80.6343 91.9106 90.0721 82.4727 101.714 82.4727C113.357 82.4727 122.794 91.9106 122.794 103.553Z" fill="url(#paint0_linear_135_751)"/>
</g>
<g filter="url(#filter2_b_135_751)">
<g filter="url(#filter3_i_135_751)">
<path d="M113.739 114.423C113.886 113.591 113.962 112.735 113.962 111.862C113.962 103.691 107.277 97.0666 99.0293 97.0666C92.8981 97.0666 87.6299 100.728 85.3301 105.963C83.467 104.37 81.0494 103.407 78.4074 103.407C72.5164 103.407 67.7409 108.191 67.7409 114.093C67.7409 114.421 67.7557 114.747 67.7847 115.068C64.9512 116.443 63.0002 119.328 63.0002 122.665C63.0002 127.334 66.8206 131.119 71.5334 131.119H111.829C116.542 131.119 120.362 127.334 120.362 122.665C120.362 118.646 117.532 115.282 113.739 114.423Z" fill="url(#paint1_linear_135_751)"/>
</g>
</g>
<defs>
<filter id="filter0_f_135_751" x="0.391113" y="0" width="202.646" height="199.809" filterUnits="userSpaceOnUse" color-interpolation-filters="sRGB">
<feFlood flood-opacity="0" result="BackgroundImageFix"/>
<feBlend mode="normal" in="SourceGraphic" in2="BackgroundImageFix" result="shape"/>
<feGaussianBlur stdDeviation="38.5" result="effect1_foregroundBlur_135_751"/>
</filter>
<filter id="filter1_i_135_751" x="80.6343" y="82.4727" width="42.1602" height="47.1601" filterUnits="userSpaceOnUse" color-interpolation-filters="sRGB">
<feFlood flood-opacity="0" result="BackgroundImageFix"/>
<feBlend mode="normal" in="SourceGraphic" in2="BackgroundImageFix" result="shape"/>
<feColorMatrix in="SourceAlpha" type="matrix" values="0 0 0 0 0 0 0 0 0 0 0 0 0 0 0 0 0 0 127 0" result="hardAlpha"/>
<feOffset dy="5"/>
<feGaussianBlur stdDeviation="9"/>
<feComposite in2="hardAlpha" operator="arithmetic" k2="-1" k3="1"/>
<feColorMatrix type="matrix" values="0 0 0 0 1 0 0 0 0 1 0 0 0 0 1 0 0 0 0.81 0"/>
<feBlend mode="normal" in2="shape" result="effect1_innerShadow_135_751"/>
</filter>
<filter id="filter2_b_135_751" x="36" y="70.0666" width="111.362" height="88.0524" filterUnits="userSpaceOnUse" color-interpolation-filters="sRGB">
<feFlood flood-opacity="0" result="BackgroundImageFix"/>
<feGaussianBlur in="BackgroundImageFix" stdDeviation="13.5"/>
<feComposite in2="SourceAlpha" operator="in" result="effect1_backgroundBlur_135_751"/>
<feBlend mode="normal" in="SourceGraphic" in2="effect1_backgroundBlur_135_751" result="shape"/>
</filter>
<filter id="filter3_i_135_751" x="63" y="97.0666" width="57.3623" height="44.0524" filterUnits="userSpaceOnUse" color-interpolation-filters="sRGB">
<feFlood flood-opacity="0" result="BackgroundImageFix"/>
<feBlend mode="normal" in="SourceGraphic" in2="BackgroundImageFix" result="shape"/>
<feColorMatrix in="SourceAlpha" type="matrix" values="0 0 0 0 0 0 0 0 0 0 0 0 0 0 0 0 0 0 127 0" result="hardAlpha"/>
<feOffset dy="11"/>
<feGaussianBlur stdDeviation="5"/>
<feComposite in2="hardAlpha" operator="arithmetic" k2="-1" k3="1"/>
<feColorMatrix type="matrix" values="0 0 0 0 1 0 0 0 0 1 0 0 0 0 1 0 0 0 1 0"/>
<feBlend mode="normal" in2="shape" result="effect1_innerShadow_135_751"/>
</filter>
<linearGradient id="paint0_linear_135_751" x1="98.5123" y1="115.027" x2="115.857" y2="84.6074" gradientUnits="userSpaceOnUse">
<stop stop-color="#FF9900"/>
<stop offset="1" stop-color="#FFEE94"/>
</linearGradient>
<linearGradient id="paint1_linear_135_751" x1="66.6487" y1="128.079" x2="124.518" y2="84.8037" gradientUnits="userSpaceOnUse">
<stop stop-color="white"/>
<stop offset="1" stop-color="white" stop-opacity="0.58"/>
</linearGradient>
</defs>
</svg>
